<?xml version="1.0" standalone="no"?>
<!DOCTYPE svg PUBLIC "-//W3C//DTD SVG 1.1//EN" "http://www.w3.org/Graphics/SVG/1.1/DTD/svg11.dtd" >
<svg xmlns="http://www.w3.org/2000/svg">
<metadata>
Created by FontForge 20120731 at Wed Mar 23 16:03:39 2016
 By Ads
</metadata>
<defs>
<font id="iconfont" horiz-adv-x="1024" >
  <font-face 
    font-family="iconfont"
    font-weight="500"
    font-stretch="normal"
    units-per-em="1024"
    panose-1="2 0 6 3 0 0 0 0 0 0"
    ascent="896"
    descent="-128"
    x-height="792"
    bbox="0 -212 1071 896"
    underline-thickness="50"
    underline-position="-100"
    unicode-range="U+0078-E644"
  />
<missing-glyph horiz-adv-x="374" 
d="M34 0v682h272v-682h-272zM68 34h204v614h-204v-614z" />
    <glyph glyph-name=".notdef" horiz-adv-x="374" 
d="M34 0v682h272v-682h-272zM68 34h204v614h-204v-614z" />
    <glyph glyph-name=".null" horiz-adv-x="0" 
 />
    <glyph glyph-name="nonmarkingreturn" horiz-adv-x="341" 
 />
    <glyph glyph-name="x" unicode="x" horiz-adv-x="1001" 
d="M281 543q-27 -1 -53 -1h-83q-18 0 -36.5 -6t-32.5 -18.5t-23 -32t-9 -45.5v-76h912v41q0 16 -0.5 30t-0.5 18q0 13 -5 29t-17 29.5t-31.5 22.5t-49.5 9h-133v-97h-438v97zM955 310v-52q0 -23 0.5 -52t0.5 -58t-10.5 -47.5t-26 -30t-33 -16t-31.5 -4.5q-14 -1 -29.5 -0.5
t-29.5 0.5h-32l-45 128h-439l-44 -128h-29h-34q-20 0 -45 1q-25 0 -41 9.5t-25.5 23t-13.5 29.5t-4 30v167h911zM163 247q-12 0 -21 -8.5t-9 -21.5t9 -21.5t21 -8.5q13 0 22 8.5t9 21.5t-9 21.5t-22 8.5zM316 123q-8 -26 -14 -48q-5 -19 -10.5 -37t-7.5 -25t-3 -15t1 -14.5
t9.5 -10.5t21.5 -4h37h67h81h80h64h36q23 0 34 12t2 38q-5 13 -9.5 30.5t-9.5 34.5q-5 19 -11 39h-368zM336 498v228q0 11 2.5 23t10 21.5t20.5 15.5t34 6h188q31 0 51.5 -14.5t20.5 -52.5v-227h-327z" />
    <glyph glyph-name="uniE600" unicode="&#xe600;" 
d="M511 -64q-91 0 -174 35.5t-143 95.5t-95.5 143t-35.5 174t35.5 174t95.5 143t143 95.5t174 35.5t174 -35.5t143 -95.5t95.5 -143t35.5 -174q0 -52 -12 -102.5t-34 -94.5t-52.5 -83t-69.5 -69.5t-83 -52.5t-94.5 -34t-102.5 -12zM511 768q-104 0 -192.5 -51.5t-140 -140
t-51.5 -192.5t51.5 -192.5t140 -140t192.5 -51.5t192.5 51.5t140 140t51.5 192.5q0 39 -8 77t-22.5 72t-35.5 65.5t-46.5 57t-57 46.5t-65.5 35.5t-72 22.5t-77 8zM512 123q-67 0 -126.5 29t-100.5 81q-8 11 -6.5 24t12.5 21q5 4 11 6t12 1t11.5 -4t9.5 -8q33 -41 79 -63.5
t98 -22.5q53 0 99.5 22.5t78.5 64.5q8 11 21 12.5t24 -6.5q6 -5 9.5 -13t2.5 -16.5t-7 -15.5q-41 -53 -100.5 -82.5t-127.5 -29.5zM368 381q-10 0 -19 3.5t-15 10t-10 15.5t-4 19v64q0 20 14 34t34 14t34 -14t14 -34v-64q0 -13 -6.5 -24t-17.5 -17.5t-24 -6.5zM656 381
q-20 0 -34 14t-14 34v64q0 13 6.5 24t17.5 17.5t24 6.5q20 0 34 -14t14 -34v-64q0 -20 -14 -34t-34 -14z" />
    <glyph glyph-name="uniE601" unicode="&#xe601;" horiz-adv-x="1025" 
d="M983.5 342q-16.5 0 -28.5 12t-12 29q0 88 -34 168q-8 19 -18 37.5t-21.5 35.5t-25 33t-28.5 31q-30 30 -64.5 53.5t-72.5 39.5q-16 7 -32.5 12t-33 9.5t-33.5 7t-34.5 4t-34.5 1.5q-9 0 -16.5 3t-13 8.5t-8.5 13t-3 15.5q0 17 12 29t29 12q52 0 102 -10t97 -30
q93 -39 164 -110q23 -24 43.5 -50t37 -54.5t29.5 -59.5q40 -95 40 -199q0 -17 -12 -29t-28.5 -12z" />
    <glyph glyph-name="uniE602" unicode="&#xe602;" 
d="M512 812q14 0 23 -9t9 -23v-134q0 -15 -9 -23.5t-23 -8.5t-23 8.5t-9 23.5v134q0 14 9 23t23 9v0zM512 -14q14 0 23 -8.5t9 -23.5v-134q0 -14 -9 -23t-23 -9t-23 9t-9 23v134q0 15 9 23.5t23 8.5v0zM1024 300q0 -14 -9 -23t-23 -9h-134q-10 0 -17 4t-11 11t-4 17
q0 14 8.5 23t23.5 9h134q14 0 23 -9t9 -23v0zM198 300q0 -10 -4 -17t-11 -11t-17 -4h-134q-14 0 -23 9t-9 23t9 23t23 9h134q15 0 23.5 -9t8.5 -23v0zM954 556q13 -27 -13 -45l-115 -70q-28 -14 -45 13q-2 4 -3 8t-1 9t2 9.5t5.5 9.5t9.5 8l115 71q36 12 45 -13v0zM243 146
q6 -8 3.5 -22t-16.5 -22l-115 -71q-27 -13 -45 13q-6 9 -3 22.5t16 22.5l115 70q7 3 15 2.5t16 -4.5t14 -11v0zM768 742q10 -5 13.5 -18t-0.5 -27l-71 -115q-4 -10 -17 -14t-27 1q-10 5 -14 17.5t1 27.5l70 115q10 14 22.5 18t22.5 -5v0zM358 31q10 -5 14 -17.5t-1 -27.5
l-70 -115q-18 -26 -45 -13q-10 5 -13.5 18t0.5 27l71 115q8 25 44 13v0zM256 742q5 4 10.5 5.5t11.5 0.5t12 -4.5t11 -8.5l70 -115q14 -27 -13 -45q-24 -16 -41 1q-2 3 -3 6l-71 121q-5 10 -1 22t14 17v0zM666 31q27 14 44 -13l71 -115q13 -27 -13 -45q-27 -13 -45 13
l-70 115q-9 28 9 43l4 2v0zM70 556q5 10 18 13.5t27 -0.5l115 -71q10 -4 14 -16t-1 -22q-10 -15 -22.5 -18.5t-22.5 5.5l-115 64q-14 10 -18 22.5t5 22.5v0zM781 146q2 5 6.5 8.5t10.5 5.5t13.5 2t14.5 -3l115 -70q10 -5 13.5 -18t-0.5 -27q-3 -5 -7.5 -8.5t-10.5 -5
t-13 -1.5t-14 2l-115 71q-10 4 -14 17t1 27v0zM781 146z" />
    <glyph glyph-name="uniE603" unicode="&#xe603;" 
d="M953 -12l-152 163q46 56 71 124t25 141q0 85 -33 162t-89 132.5t-133 88.5t-161 33q-113 0 -209 -55.5t-151.5 -151.5t-55.5 -209t55.5 -208.5t151.5 -151.5t209 -56q90 0 172 37q12 6 16.5 18.5t-1 24.5t-18 16.5t-24.5 -0.5q-23 -11 -47 -18t-48.5 -10.5t-49.5 -3.5
q-96 0 -177 47t-128 128.5t-47 177t47 176.5t128 128t177 47q71 0 136 -28t112.5 -75t75.5 -112t28 -137q0 -141 -99 -244q-4 -4 -6.5 -10t-2 -12.5t3 -12t6.5 -10.5q1 0 2 -1t1.5 -1t1.5 -2q0 -1 1 -2l166 -177q9 -10 23 -10q12 0 22 9t10.5 22t-9.5 23z" />
    <glyph glyph-name="uniE604" unicode="&#xe604;" 
d="M511.5 288q-79.5 0 -135.5 56.5t-56 135.5q0 52 25.5 96.5t70 70t96.5 25.5t96 -25.5t70 -70t26 -96.5q0 -79 -56.5 -135.5t-136 -56.5zM512 608q-53 0 -90.5 -37.5t-37.5 -90.5q0 -35 17 -64.5t46.5 -46.5t64.5 -17t64.5 17t46.5 46.5t17 64.5q0 53 -37.5 90.5
t-90.5 37.5zM512 -64q-13 0 -22 9q-10 9 -10 22t9 23q39 41 86 97.5t100.5 129.5t89 144.5t35.5 118.5q0 119 -84.5 203.5t-203.5 84.5t-203.5 -84.5t-84.5 -203.5q0 -57 53 -151.5t151 -216.5q4 -5 6 -11t1.5 -12t-3.5 -11.5t-8 -10.5q-7 -5 -15.5 -6.5t-16.5 1.5t-13 10
q-73 89 -121.5 164t-73 136.5t-24.5 107.5q0 95 47 176.5t128 128.5t177 47q32 0 63 -5.5t59.5 -16.5t55 -26t49 -34.5t42.5 -42.5t35 -49.5t26 -55t16.5 -59.5t5.5 -63q0 -52 -34 -127t-76.5 -137t-98 -131t-79.5 -95t-41 -44q-10 -10 -23 -10z" />
    <glyph glyph-name="uniE605" unicode="&#xe605;" 
d="M512 832q-96 0 -177 -47t-128 -128.5t-47 -176.5q0 -52 34 -127t76.5 -137t98 -131t79.5 -95t41 -44q9 -10 23 -10h1q14 0 23 11l109 125q219 268 219 408q0 95 -47 176.5t-128.5 128.5t-176.5 47zM512 320q-33 0 -62.5 12.5t-51 34t-34 51t-12.5 62.5q0 22 5.5 42.5
t16 38t25.5 32.5t32.5 25.5t38 16t42.5 5.5q43 0 80 -21.5t58.5 -58t21.5 -80t-21.5 -80.5t-58.5 -58.5t-80 -21.5z" />
    <glyph glyph-name="uniE606" unicode="&#xe606;" 
d="M796 372l-259 259q-4 5 -10 7t-13 2l-1 1h-2q-6 0 -13 -3q-3 -1 -6 -3t-5 -4l-259 -259q-7 -6 -9 -14.5t0 -16.5t9 -15q9 -9 22 -9t23 9l206 207v-564q0 -13 9.5 -22.5t22.5 -9.5q5 0 10 1.5t9 4.5t7 7t4.5 9t1.5 10v565l208 -208q5 -4 10.5 -6.5t12.5 -2.5q3 0 6 0.5
t6 1.5t5.5 3t4.5 4q10 10 10 23t-10 23zM864 704h-704q-13 0 -22.5 9.5t-9.5 22.5q0 9 4.5 16t11.5 11.5t16 4.5h704q13 0 22.5 -9.5t9.5 -22.5t-9.5 -22.5t-22.5 -9.5z" />
    <glyph glyph-name="uniE607" unicode="&#xe607;" 
d="M793 430q-2 2 -5 4t-6 3l-6 2q-3 1 -6 1q-6 0 -12 -2.5t-10 -7.5l-208 -208v566q0 13 -9.5 22.5t-23 9.5t-22.5 -9.5t-9 -22.5v-564l-207 206q-2 2 -4.5 4t-5.5 3t-6 1.5t-6 0.5q-13 0 -22.5 -9t-9.5 -22.5t9 -22.5l260 -259q4 -5 11 -8q6 -2 13 -2h1h2h5l4 2
q3 0 5.5 1.5t4.5 3t4 3.5l259 259q9 9 9 22.5t-9 22.5zM893 20.5q0 -13.5 -9.5 -23t-22.5 -9.5h-704q-9 0 -16.5 4.5t-11.5 12t-4 15.5q0 14 9 23t23 9h704q13 0 22.5 -9t9.5 -22.5z" />
    <glyph glyph-name="uniE608" unicode="&#xe608;" 
d="M982 492l-409 320q-26 21 -62 21t-62 -21l-406 -321q-10 -8 -11.5 -21t6.5 -23.5t21 -12t24 6.5l13 11v-388q0 -40 34 -68t74 -28h640q37 0 60.5 26.5t23.5 69.5v389l14 -12q9 -7 20 -7q16 0 25 13q3 4 5 8.5t2 9.5t-1 10t-4 9t-7 8zM608 99v-67h-192v179q0 31 25 54
t71 23t71 -23t25 -54v-112z" />
    <glyph glyph-name="uniE609" unicode="&#xe609;" 
d="M980 491l-406 321q-26 21 -62 21t-62 -21l-406 -321q-10 -8 -11.5 -21t6.5 -23.5t21 -12t23 6.5l13 11v-388q0 -40 34.5 -68t74.5 -28h640q37 0 60 26.5t23 69.5v386l12 -9q8 -7 20 -7q15 0 25 13q5 6 6.5 14.5t-1.5 16.5t-10 13zM480 32v177q0 14 32 14t32 -14v-177h-64
zM864 64q0 -11 -2 -18t-6.5 -10.5t-10.5 -3.5h-236l-1 1v176q0 20 -10 37t-32.5 29t-53.5 12q-46 0 -71 -23.5t-25 -54.5v-176l1 -1h-212q-15 0 -30 10.5t-15 21.5v438l329 260q9 7 22.5 7t22.5 -7l330 -261v-437z" />
    <glyph glyph-name="uniE60A" unicode="&#xe60a;" 
d="M519 242v7q22 15 38 34.5t25.5 43.5t15 44t7.5 49.5t2.5 46.5t0.5 47v14q0 98 -56 153.5t-154 55.5h-7q-32 0 -59 -6.5t-48.5 -18t-38 -29.5t-28 -41t-17 -51.5t-5.5 -62.5q0 -30 0.5 -49t6 -56.5t15.5 -64.5t31 -57.5t50 -51.5v-5q-46 -7 -87 -19.5t-74 -30t-52.5 -42.5
t-19.5 -53q0 -162 329 -162q82 0 144.5 10t99.5 25.5t60 37.5t31 43.5t8 45.5q0 30 -22 55.5t-58 42.5t-70 28t-68 17zM930 128q-5 0 -9 1.5t-7.5 3.5t-6.5 5t-5 6.5t-3 7.5t-1 8q-1 12 -29.5 33.5t-76 41.5t-92.5 25q-6 1 -11 3.5t-9 7t-6 10t-2 11.5v66q0 5 1.5 9.5t4 8.5
t6.5 7q27 21 48.5 57t34 79t12.5 83q0 39 -12 66.5t-33 41t-43 19.5t-49 6q-8 0 -15.5 4t-12 11.5t-4.5 16t4.5 16t12 12t15.5 4.5q93 0 147 -53t54 -144q0 -47 -13.5 -96t-38 -91.5t-55.5 -71.5v-24q49 -11 99 -33t88.5 -56.5t38.5 -69.5q0 -9 -4.5 -16t-11.5 -11.5
t-16 -4.5v0z" />
    <glyph glyph-name="uniE60B" unicode="&#xe60b;" 
d="M401 -64q-336 0 -336 162q0 37 34 67.5t84.5 49t111.5 28.5v6q-31 24 -51.5 57.5t-30 73t-13 74t-3.5 76.5q0 99 55 155t153 56h7q48 0 87 -14.5t65.5 -41.5t41 -66.5t14.5 -88.5q0 -33 -2 -60.5t-8 -61t-16 -60t-28.5 -53.5t-43.5 -46v-6q45 -7 85 -19.5t73 -30.5
t52.5 -42.5t19.5 -52.5q0 -15 -3.5 -28.5t-10.5 -28t-20.5 -27.5t-32 -25t-46 -21.5t-61 -16.5t-79 -11t-98.5 -4zM405 677q-72 0 -108 -37t-36 -110q0 -39 3 -70t11 -64.5t25.5 -60t43.5 -42.5q15 -10 15 -27v-52q0 -12 -8.5 -21t-20.5 -10q-57 -6 -105 -22t-72 -33
t-24 -30q0 -98 272 -98q137 0 212 25.5t75 72.5q0 10 -15 22.5t-40 24.5t-64 22.5t-82 15.5q-13 1 -21 10t-8 21v52q0 17 15 27q26 16 43.5 42.5t25.5 60t11 64.5t3 70q0 37 -9 64.5t-27 46t-45 27.5t-63 9h-7zM899 132q-13 0 -22.5 9.5t-9.5 22.5t-26.5 33t-73.5 38.5
t-97 23.5q-12 2 -20.5 11t-8.5 21v67q0 8 4 15t11 12q14 8 25.5 19.5t20 23.5t15.5 26t11.5 27.5t8.5 28t6 27t3 25.5t1.5 22t0.5 18q0 27 -5.5 48.5t-16 35.5t-23.5 24.5t-29 15.5t-31 7.5t-32 2.5q-14 0 -23 9.5t-9 22.5q0 9 4 16t11.5 11.5t16.5 4.5q46 0 83.5 -14
t63.5 -39t40 -62t14 -83q0 -27 -3.5 -55.5t-13.5 -67.5t-33 -75.5t-57 -62.5v-22q54 -10 104.5 -31.5t86 -54.5t35.5 -69q0 -13 -9.5 -22.5t-22.5 -9.5z" />
    <glyph glyph-name="uniE60C" unicode="&#xe60c;" 
d="M877 24q-18 9 -47 23t-93 38t-97 27v23q59 26 103 73.5t68 111t24 135.5q0 141 -94 242q-101 99 -231 103q-88 0 -163 -46.5t-118.5 -125.5t-43.5 -173q0 -110 54 -197t145 -124v-22h-1q-69 -4 -236 -88l-5 -6q-4 -3 -9.5 -11.5t-4.5 -14.5q2 -10 10 -17t19 -7h709
q11 0 19 6.5t11 16.5q1 6 -4 14.5t-10 12.5l-5 6v0z" />
    <glyph glyph-name="uniE60D" unicode="&#xe60d;" 
d="M160 -32q-18 0 -27 15q-7 11 -4 24t14 20q7 5 17 11t39.5 21t56.5 26t62.5 21t64.5 12h1v18q-91 37 -145.5 124.5t-54.5 195.5q0 93 43.5 172.5t118.5 125.5t163.5 46t163.5 -46t118.5 -125.5t43.5 -172.5q0 -71 -24 -134.5t-68 -111t-103 -72.5v-21q100 -9 240 -90
q12 -6 15 -19t-4 -24.5t-19.5 -14.5t-24.5 4q-131 75 -214 81h-25q-9 0 -16.5 4.5t-11.5 11.5t-4 16v74q0 23 21 30q79 27 126.5 99.5t47.5 167.5q0 75 -35 139.5t-95 102t-131 37.5q-108 0 -185 -82t-77 -198q0 -94 49 -168t129 -99q10 -4 16 -12.5t6 -18.5v-72
q0 -13 -9.5 -22.5t-22.5 -9.5h-31q-17 -1 -38 -6t-40.5 -12t-39 -15.5t-35 -16.5t-28.5 -15.5t-19.5 -11t-7.5 -4.5q-8 -5 -17 -5z" />
    <glyph glyph-name="uniE60E" unicode="&#xe60e;" 
d="M864 620h-96v96q0 13 -9.5 22.5t-22.5 9.5t-22.5 -9.5t-9.5 -22.5v-96h-384v96q0 13 -9.5 22.5t-22.5 9.5t-22.5 -9.5t-9.5 -22.5v-96h-96q-40 0 -68 -28t-28 -68v-576q0 -40 28 -68t68 -28h704q40 0 68 28t28 68v576q0 40 -28 68t-68 28zM160 556h96v-32
q0 -13 9.5 -22.5t22.5 -9.5t22.5 9.5t9.5 22.5v32h384v-32q0 -13 9.5 -22.5t22.5 -9.5t22.5 9.5t9.5 22.5v32h96q13 0 22.5 -9.5t9.5 -22.5v-96h-768v96q0 13 9.5 22.5t22.5 9.5zM864 -84h-704q-13 0 -22.5 9.5t-9.5 22.5v416h768v-416q0 -13 -9.5 -22.5t-22.5 -9.5z
M352 236h-64q-13 0 -22.5 -9.5t-9.5 -22.5t9.5 -22.5t22.5 -9.5h64q13 0 22.5 9.5t9.5 22.5t-9.5 22.5t-22.5 9.5zM544 236h-64q-13 0 -22.5 -9.5t-9.5 -22.5t9.5 -22.5t22.5 -9.5h64q13 0 22.5 9.5t9.5 22.5t-9.5 22.5t-22.5 9.5zM736 236h-64q-13 0 -22.5 -9.5t-9.5 -22.5
t9.5 -22.5t22.5 -9.5h64q13 0 22.5 9.5t9.5 22.5t-9.5 22.5t-22.5 9.5zM352 108h-64q-13 0 -22.5 -9.5t-9.5 -22.5t9.5 -22.5t22.5 -9.5h64q13 0 22.5 9.5t9.5 22.5t-9.5 22.5t-22.5 9.5zM544 108h-64q-13 0 -22.5 -9.5t-9.5 -22.5t9.5 -22.5t22.5 -9.5h64q13 0 22.5 9.5
t9.5 22.5t-9.5 22.5t-22.5 9.5zM736 108h-64q-13 0 -22.5 -9.5t-9.5 -22.5t9.5 -22.5t22.5 -9.5h64q13 0 22.5 9.5t9.5 22.5t-9.5 22.5t-22.5 9.5z" />
    <glyph glyph-name="uniE60F" unicode="&#xe60f;" 
d="M800 -32h-576q-40 0 -68 28t-28 68v640q0 19 7.5 37t20.5 31t30.5 20.5t37.5 7.5h576q40 0 68 -28t28 -68v-640q0 -40 -28 -68t-68 -28zM224 736q-6 0 -12 -2.5t-10.5 -7t-7 -10.5t-2.5 -12v-640q0 -13 9.5 -22.5t22.5 -9.5h576q9 0 16 4.5t11.5 11.5t4.5 16v640
q0 9 -4.5 16t-11.5 11.5t-16 4.5h-576zM641 351h-353q-14 0 -23 9.5t-9 23t9 22.5t23 9h353q9 0 16 -4t11.5 -11.5t4.5 -16.5q0 -13 -9.5 -22.5t-22.5 -9.5zM735 160h-447q-14 0 -23 9.5t-9 23t9 22.5t23 9h447q3 0 5.5 -0.5t5.5 -1.5t5 -2t4.5 -3t4 -4t3 -4.5t2.5 -5
t1.5 -5.5t0.5 -6q0 -13 -9.5 -22.5t-22.5 -9.5zM256 591q0 -20 14 -34t34 -14q10 0 18.5 3.5t15 10t10.5 15.5t4 19q0 20 -14 34t-34 14t-34 -14t-14 -34zM463 591q0 -20 14 -34t34 -14t34 14t14 34t-14 34t-34 14t-34 -14t-14 -34zM671 591q0 -20 14 -34t34 -14t34 14
t14 34t-14 34t-34 14t-34 -14t-14 -34z" />
    <glyph glyph-name="uniE610" unicode="&#xe610;" 
d="M800 -64h-576q-40 0 -68 28t-28 68v640q0 40 28 68t68 28h448q9 0 16 -4.5t11.5 -11.5t4.5 -16t-4.5 -16.5t-11.5 -11.5t-16 -4h-448q-13 0 -22.5 -9.5t-9.5 -22.5v-640q0 -13 9.5 -22.5t22.5 -9.5h576q9 0 16 4.5t11.5 11.5t4.5 16v512q0 9 4 16.5t11.5 11.5t16.5 4
q4 0 8.5 -1t8 -3t6 -5t5 -6.5t3.5 -8t1 -8.5v-512q0 -40 -28 -68t-68 -28zM612 448q-13 0 -22.5 9.5t-9.5 22.5t9 23l318 318q3 3 7 5t8 3t8 1t8 -1t8 -3t7 -5t5 -7t3 -8t1 -8t-1 -8t-3 -7.5t-5 -7.5l-318 -318q-2 -1 -3.5 -2.5t-3.5 -2.5l-4 -2h-4l-4 -2h-4zM480 448h-192
q-13 0 -22.5 9.5t-9.5 22.5q0 9 4 16.5t11.5 11.5t16.5 4h192q13 0 22.5 -9.5t9.5 -22.5t-9.5 -22.5t-22.5 -9.5zM672 256h-384q-13 0 -22.5 9.5t-9.5 22.5t9.5 22.5t22.5 9.5h384q4 0 8.5 -1t8 -3t6 -5t5 -6.5t3.5 -8t1 -8.5q0 -6 -2.5 -12t-7 -10.5t-10 -7t-12.5 -2.5z
" />
    <glyph glyph-name="uniE611" unicode="&#xe611;" 
d="M512 832q-61 0 -119 -16t-107 -45t-90.5 -70.5t-70.5 -90.5t-45 -107t-16 -119q0 -91 35.5 -174t95.5 -143t143 -95.5t174 -35.5t174 35.5t143 95.5t95.5 143t35.5 174q0 52 -12 102.5t-34 94.5t-52.5 83t-69.5 69.5t-83 52.5t-94.5 34t-102.5 12zM512 0q-78 0 -149 30.5
t-122.5 82t-82 122.5t-30.5 149q0 104 51.5 192.5t140 140t192.5 51.5t192.5 -51.5t140 -140t51.5 -192.5t-51.5 -192.5t-140 -140t-192.5 -51.5zM672 384h-160v224q0 13 -9.5 22.5t-22.5 9.5t-22.5 -9.5t-9.5 -22.5v-256q0 -13 9.5 -22.5t22.5 -9.5h192q13 0 22.5 9.5
t9.5 22.5t-9.5 22.5t-22.5 9.5z" />
    <glyph glyph-name="uniE612" unicode="&#xe612;" 
d="M857 639h-412q-2 5 -8 26.5t-12 40.5l-6 18q-5 18 -22 31t-36 13h-192q-43 0 -73.5 -30.5t-30.5 -73.5l-1 -562q0 -43 30.5 -73.5t73.5 -30.5h689q43 0 73 30.5t30 73.5v433q0 28 -13.5 52t-37.5 38t-52 14zM896 98q0 -14 -12 -24.5t-27 -10.5h-693q-14 0 -24.5 10.5
t-9.5 24.5l-1 567q0 7 3 14t8 12.5t11.5 9t13.5 3.5h170q5 0 10.5 -3t9.5 -7t6 -9q27 -83 30 -89q14 -21 37 -21h429q9 0 18.5 -4.5t15 -12.5t5.5 -18v-442z" />
    <glyph glyph-name="uniE613" unicode="&#xe613;" horiz-adv-x="1098" 
d="M353 97l-29 -29q-6 -6 -13.5 -6t-12.5 6l-267 266q-5 6 -5 13.5t5 13.5l267 266q5 6 12.5 6t13.5 -6l29 -29q5 -5 5 -12.5t-5 -13.5l-225 -225l225 -224q5 -6 5 -13.5t-5 -12.5zM690 706l-213 -737q-2 -8 -8.5 -11.5t-13.5 -1.5l-36 10q-7 2 -10.5 8.5t-1.5 14.5l213 737
q2 8 8.5 11.5t13.5 1.5l36 -10q7 -2 11 -8.5t1 -14.5zM1066 334l-267 -266q-5 -6 -12.5 -6t-13.5 6l-29 29q-5 5 -5 12.5t5 13.5l225 224l-225 225q-5 6 -5 13.5t5 12.5l29 29q6 6 13.5 6t12.5 -6l267 -266q5 -6 5 -13.5t-5 -13.5z" />
    <glyph glyph-name="uniE614" unicode="&#xe614;" 
d="M893 704h-763q-27 0 -46.5 -19.5t-19.5 -46.5v-571q0 -28 19.5 -47.5t46.5 -19.5h763q27 0 46.5 19.5t19.5 47.5v571q0 27 -19.5 46.5t-46.5 19.5zM865 640h1l-354 -309l-355 309h2h706zM865 64h-706q-13 0 -22 9t-9 22v486l362 -316q3 -3 6.5 -5t7.5 -3t8 -1q13 0 22 9
l361 316v-486q0 -3 -0.5 -6.5t-2 -6.5t-3.5 -6t-5 -5t-6 -3.5t-6.5 -2.5t-6.5 -1z" />
    <glyph glyph-name="uniE615" unicode="&#xe615;" 
d="M890 146v1q-7 8 -15 20.5t-28.5 48t-35.5 68t-27.5 74.5t-12.5 76q0 118 -45.5 189t-117.5 98v15q0 26 -13 48t-35 35t-48 13q-40 0 -68 -28t-28 -68v-15q-112 -42 -148 -171q-15 -53 -15 -116q0 -20 -4 -42.5t-10.5 -42.5t-16.5 -43.5t-18 -40.5t-20 -38l-18 -31
q-6 -11 -16.5 -26.5t-11 -16t-4.5 -6.5q-8 -12 -5 -26q1 -7 5.5 -12.5t10.5 -8.5q12 -7 35 -18t82.5 -32.5t115.5 -34.5q16 -50 52.5 -80.5t81 -30.5t81 30.5t52.5 80.5q122 27 234 84q4 3 7 6t5.5 7t3.5 8q2 7 0.5 14t-5.5 12zM480 736q0 13 9.5 22.5t22.5 9.5t22.5 -9.5
t9.5 -22.5v-1q-6 1 -11 1h-10h-22h-7q-3 0 -6.5 -0.5t-7.5 -0.5v1zM512 -32q-11 0 -21.5 4.5t-20 12t-16.5 18.5q30 -3 58 -3q25 0 58 3q-24 -35 -58 -35z" />
    <glyph glyph-name="uniE616" unicode="&#xe616;" 
d="M890 146q-3 4 -13 19t-29.5 48t-35.5 67.5t-28.5 77t-12.5 76.5q0 118 -45.5 189t-117.5 98v15q0 26 -13 48t-35 35t-48 13q-40 0 -68 -28t-28 -68v-17q-19 -13 -12 -35q4 -13 16 -19t24 -2q27 9 57 9h22q57 0 98.5 -28.5t63.5 -82t22 -127.5q0 -122 110 -294
q-168 -76 -305 -76t-305 77q42 64 76 143t34 150q0 94 35 154q7 11 3.5 24t-15 19.5t-24.5 3t-19 -14.5q-22 -38 -33 -84.5t-11 -101.5q0 -25 -6.5 -54.5t-16 -55t-24 -55t-24.5 -47t-24 -39.5t-16 -25l-8 -11q-8 -12 -5 -26q1 -7 5.5 -12.5t10.5 -8.5q13 -7 35.5 -18
t82 -33t115.5 -34q16 -50 52.5 -80.5t81 -30.5t81 30.5t53.5 80.5q121 26 233 84q4 2 7.5 5.5t5.5 7.5t3 8.5t1 9t-1.5 9t-4.5 7.5zM501 736l-21 -2v2q0 22 21 30q5 2 11 2q5 0 10 -1.5t9 -4.5t7 -7t4.5 -9t1.5 -10v-1q-6 1 -11 1h-10h-22zM512 -32q-11 0 -21.5 4.5t-20 12
t-16.5 18.5q30 -3 58 -3q25 0 58 3q-24 -35 -58 -35z" />
    <glyph glyph-name="uniE617" unicode="&#xe617;" 
d="M512 829q-122 0 -225 -51.5t-163 -140t-60 -192.5q0 -88 45.5 -166.5t128.5 -135.5l84 -52q-6 -37 -33 -115q-7 -20 8 -35q9 -8 22 -8q7 0 13 3q28 12 57.5 27t70.5 43.5t59 54.5q120 2 221.5 53.5t160.5 139.5t59 191q0 52 -16 102t-45 92t-70.5 77.5t-90.5 60
t-107 38.5t-119 14zM580 352h-195q-13 0 -22.5 9.5t-9.5 22.5t9.5 22.5t22.5 9.5h195q9 0 16.5 -4t11.5 -11.5t4 -16.5q0 -13 -9.5 -22.5t-22.5 -9.5zM641 480h-256q-13 0 -22.5 9.5t-9.5 22.5t9.5 22.5t22.5 9.5h256q9 0 16 -4t11.5 -11.5t4.5 -16.5t-4.5 -16t-11.5 -11.5
t-16 -4.5z" />
    <glyph glyph-name="uniE618" unicode="&#xe618;" 
d="M640 480h-256q-13 0 -22.5 9.5t-9.5 22.5t9.5 22.5t22.5 9.5h256q13 0 22.5 -9.5t9.5 -22.5t-9.5 -22.5t-22.5 -9.5zM579 352h-195q-13 0 -22.5 9.5t-9.5 22.5t9.5 22.5t22.5 9.5h195q9 0 16.5 -4t11.5 -11.5t4 -16.5q0 -13 -9.5 -22.5t-22.5 -9.5zM962 448
q0 104 -60 192.5t-163 140t-224.5 51.5t-225 -51.5t-163.5 -140t-60 -192.5q0 -58 20.5 -113t59 -102.5t93.5 -85.5q11 -7 24 -4.5t20 13.5q4 5 5.5 11.5t0 12.5t-5 11.5t-8.5 8.5q-69 47 -107 112t-38 136q0 87 51.5 160.5t140 116.5t192.5 43t192.5 -43t140 -116.5
t51.5 -160.5q0 -33 -8 -64.5t-22.5 -60t-35.5 -54.5t-46.5 -47.5t-56.5 -39t-65.5 -29.5t-72.5 -18.5t-77 -6.5q-1 0 -4 -1h-1q-12 2 -22 -3.5t-14 -16.5q-9 -26 -94 -74q17 58 3 79q-11 16 -30 16q-8 0 -15.5 -4.5t-12 -11.5t-4.5 -16q0 -2 0.5 -4.5t1 -4.5t1.5 -3.5
t2 -3.5q-6 -34 -33 -100q-9 -20 7 -35q4 -4 10 -6.5t12 -2.5q2 0 4.5 0.5t4.5 1t4 1.5q145 64 188 125q120 2 221 53.5t160 139.5t59 191z" />
    <glyph glyph-name="uniE619" unicode="&#xe619;" 
d="M570 800h-6q-118 0 -197 -75t-79 -187v-429l-105 106q-6 7 -14.5 9t-16.5 0t-14 -8q-10 -10 -10 -23t10 -23l158 -160q9 -9 23 -9q6 0 12 2t10 7v0l160 159q6 6 8 14.5t0 16.5t-8 14q-9 10 -22.5 10t-22.5 -10l-104 -103v241v186q0 85 60.5 141.5t151.5 56.5h6
q58 0 103 -25t70 -70t25 -103v-506q0 -13 9.5 -22.5t22.5 -9.5t22.5 9.5t9.5 22.5v506q0 114 -74 188t-188 74z" />
    <glyph glyph-name="uniE61A" unicode="&#xe61a;" 
d="M769 192q-13 0 -26 -2.5t-24.5 -7.5t-22 -12t-18.5 -16l-310 172q15 28 15 58q0 9 -1.5 18t-4.5 18l305 189q12 -10 25 -17.5t28.5 -11.5t31.5 -4q53 0 90.5 37.5t37.5 90.5q0 21 -6.5 40.5t-18 35t-27.5 27.5t-35.5 18.5t-40.5 6.5q-53 0 -90.5 -37.5t-37.5 -90.5
q0 -20 8 -41l-302 -188q-38 37 -90 37q-53 0 -90.5 -37.5t-37.5 -90.5q0 -34 17 -63.5t46.5 -47t64.5 -17.5q19 0 36.5 5.5t32.5 15.5l322 -178q-6 -19 -6 -34q0 -53 37.5 -90.5t90.5 -37.5t90.5 37.5t37.5 90.5q0 34 -17 63.5t-46.5 46.5t-63.5 17zM767 768q27 0 45.5 -19
t18.5 -45q0 -13 -5 -25t-13.5 -20.5t-20.5 -13.5t-25 -5q-26 0 -45 19t-19 45q0 13 5 25t13.5 20.5t20.5 13.5t25 5zM191 384.5q0 26.5 19 45t45 18.5q17 0 32 -8.5t23.5 -23.5t8.5 -32q0 -26 -18.5 -45t-45 -19t-45.5 19t-19 45.5zM768.5 0q-26.5 0 -45 19t-18.5 45.5
t18.5 45t45 18.5t45.5 -18.5t19 -45t-19 -45.5t-45.5 -19z" />
    <glyph glyph-name="uniE61B" unicode="&#xe61b;" 
d="M224 288q-53 0 -81 45q-15 23 -15 51q0 40 28 68t68 28q19 0 37 -7.5t31 -20.5t20.5 -30.5t7.5 -37.5q0 -40 -28 -68t-68 -28zM512 288q-20 0 -37.5 7.5t-30.5 20.5t-20.5 31t-7.5 37q0 40 28 68t68 28q26 0 48 -13t35 -35t13 -48q0 -40 -28 -68t-68 -28zM800 288
q-26 0 -48 13t-35 35t-13 48q0 40 28 68t68 28q26 0 48 -13t35 -35t13 -48t-13 -48t-35 -35t-48 -13z" />
    <glyph glyph-name="uniE61C" unicode="&#xe61c;" 
d="M608 -64q-13 0 -22.5 9.5t-9.5 22.5v480q0 12 9 21l208 235h-563l210 -235q4 -4 6 -9.5t2 -11.5v-289l51 -41q6 -6 9 -13.5t2 -16t-7 -15.5q-4 -5 -9.5 -8t-11.5 -3.5t-12.5 1t-11.5 5.5l-62 51q-12 10 -12 25v292l-249 279q-14 15 -5.5 34t29.5 19h706q21 0 29.5 -19
t-5.5 -34l-249 -279v-468q0 -24 -22 -31q-5 -1 -10 -1z" />
    <glyph glyph-name="uniE61D" unicode="&#xe61d;" 
d="M608 128q-13 0 -22.5 9.5t-9.5 22.5v352q0 13 9.5 22.5t22.5 9.5t22.5 -9.5t9.5 -22.5v-352q0 -13 -9.5 -22.5t-22.5 -9.5zM416 128q-13 0 -22.5 9.5t-9.5 22.5v352q0 3 0.5 6.5t2 6t3 5.5t3.5 5t5 3.5t5.5 3t6 2t6.5 0.5q13 0 22.5 -9.5t9.5 -22.5v-352
q0 -13 -9.5 -22.5t-22.5 -9.5zM928 672h-160v64q0 40 -28 68t-67 28h-321q-40 0 -68 -28t-28 -68v-64h-160q-13 0 -22.5 -9.5t-9.5 -22.5t9.5 -22.5t22.5 -9.5h832q13 0 22.5 9.5t9.5 22.5q0 24 -22 31q-5 1 -10 1zM320 736q0 13 9.5 22.5t22.5 9.5h321q13 0 22 -9.5
t9 -22.5v-64h-384v64zM736 -64h-448q-40 0 -68 28t-28 68v480q0 14 9.5 23t22.5 9t22.5 -9t9.5 -23v-480q0 -13 9.5 -22.5t22.5 -9.5h448q9 0 16.5 4.5t11.5 11.5t4 16v479q0 13 9.5 22.5t22.5 9.5q9 0 16.5 -4t11.5 -11.5t4 -16.5v-479q0 -40 -28 -68t-68 -28z" />
    <glyph glyph-name="uniE61E" unicode="&#xe61e;" 
d="M512 288q-20 0 -37.5 7.5t-30.5 20.5t-20.5 31t-7.5 37q0 40 28 68t68 28q26 0 48 -13t35 -35t13 -48q0 -40 -28 -68t-68 -28zM512 416q-13 0 -22.5 -9.5t-9.5 -22.5t9.5 -22.5t22.5 -9.5q9 0 16 4.5t11.5 11.5t4.5 16t-4.5 16t-11.5 11.5t-16 4.5zM631 -64q-5 0 -10 1.5
t-9 4.5t-7 7l-73 101q-20 -2 -40 0l-73 -101q-14 -18 -35 -12q-52 15 -98 41q-19 10 -16 32l20 124q-15 13 -28 28l-124 -20q-9 -1 -18 3.5t-14 12.5q-26 47 -41 98q-1 5 -1 10t1.5 9.5t4.5 8.5t7 7l101 73q-1 9 -1 20v6v8q0 3 1 6l-101 73q-18 14 -12 35q15 52 41 98
q10 19 32 16l124 -20q13 15 28 28l-20 124q-3 22 17 32q15 9 31 16t32.5 13.5t33.5 11.5q10 2 19.5 -1t15.5 -11l73 -101q10 1 20 1t20 -1l73 101q13 18 35 12q51 -15 98 -41q19 -10 16 -32l-20 -124q15 -13 28 -28l124 20h8q3 0 7 -1.5t7 -3.5t5.5 -5t4.5 -6q26 -46 41 -98
q3 -10 -0.5 -19.5t-11.5 -15.5l-101 -73q0 -3 0.5 -5.5t0.5 -4.5v-5v-5v-10q0 -5 -1 -10l101 -73q18 -13 12 -35q-15 -52 -41 -98q-11 -19 -33 -16l-123 19q-12 -14 -28 -27l20 -124q1 -9 -3.5 -18t-12.5 -14q-46 -26 -98 -41q-5 -1 -9 -1zM337 23q21 -10 44 -18l70 97
q11 15 30 13q31 -4 62 0q19 2 30 -13l70 -97q23 8 44 18l-19 119q-3 18 12 30q12 10 23.5 21t20.5 23q6 7 14 10t16 2l118 -19q6 11 10 21.5t8 22.5l-96 70q-15 11 -13 30q2 16 2 31t-2 31q-2 19 13 30l96 70q-7 23 -18 44l-118 -19q-6 -1 -11.5 0.5t-10 4.5t-8.5 7
q-20 25 -44 44q-14 12 -12 30l19 119q-21 10 -44 18l-70 -97q-11 -15 -30 -13q-15 2 -31 2t-31 -2q-9 -1 -17 2.5t-13 10.5l-70 97q-12 -4 -22.5 -8.5t-21.5 -9.5l19 -119q0 -4 -0.5 -8t-2 -8t-4 -7.5t-5.5 -6.5q-12 -9 -23 -20t-21 -24q-6 -7 -14 -10t-16 -2l-119 19
q-10 -21 -18 -44l97 -70q15 -11 13 -30q-2 -16 -2 -31t2 -31q2 -19 -13 -30l-97 -70q8 -23 18 -44l119 19q18 2 30 -12q6 -8 13 -16t15 -15t16 -13q15 -12 12 -30z" />
    <glyph glyph-name="uniE61F" unicode="&#xe61f;" 
d="M210 5q-47 0 -80.5 33.5t-33.5 80.5v498q0 47 33.5 80.5t80.5 33.5h623q47 0 80 -33.5t33 -80.5v-498q0 -47 -33 -80.5t-80 -33.5h-623zM210 670q-15 0 -27 -7t-19 -19.5t-7 -26.5v-498q0 -22 15.5 -37.5t37.5 -15.5h623q21 0 36.5 15.5t15.5 37.5v498q0 14 -7 26.5
t-19 19.5t-26 7h-623zM791 192q-13 0 -21.5 9t-8.5 22q0 39 -27.5 66.5t-66.5 27.5t-67 -27.5t-28 -66.5q0 -7 -2 -12.5t-6.5 -9.5t-10 -6.5t-11.5 -2.5t-11.5 2.5t-10 6.5t-6.5 9.5t-2 12.5q0 39 19 74t53 56q-31 33 -31 77q0 47 33.5 80.5t80.5 33.5t80 -33.5t33 -80.5
q0 -21 -8 -41t-23 -36q14 -8 25.5 -19t20 -23.5t14.5 -27t9.5 -30t3.5 -30.5q0 -13 -9 -22t-22 -9zM667 483q-15 0 -27 -7t-19 -19.5t-7 -26.5q0 -11 4 -20.5t11 -16.5t17 -11t21 -4q5 0 10 1t10 3t9 4.5t7.5 6t6.5 8t5 9t3 10t1 10.5q0 22 -15.5 37.5t-36.5 15.5zM435 482
h-187q-13 0 -22.5 9.5t-9.5 22.5t9.5 22.5t22.5 9.5h187q8 0 15.5 -4t12 -11.5t4.5 -16.5q0 -13 -9.5 -22.5t-22.5 -9.5zM435 336h-187q-13 0 -22.5 9.5t-9.5 22.5t9.5 22.5t22.5 9.5h187q13 0 22.5 -9.5t9.5 -22.5t-9.5 -22.5t-22.5 -9.5zM435 192h-187q-13 0 -22.5 9
t-9.5 22.5t9.5 23t22.5 9.5h187q13 0 22.5 -9.5t9.5 -23t-9.5 -22.5t-22.5 -9z" />
    <glyph glyph-name="uniE620" unicode="&#xe620;" 
d="M557 383l266 264q9 9 9 22t-9.5 22.5t-22.5 9.5t-23 -9l-265 -264l-263 264q-9 9 -22.5 9t-22.5 -9q-6 -6 -8.5 -14.5t0 -16.5t8.5 -14l263 -264l-265 -264q-10 -9 -10 -22.5t9.5 -22.5t22.5 -9t23 9l265 264l265 -267q5 -4 11 -6.5t12 -2.5q3 0 6 0.5t6 1.5t5.5 3t5.5 4
q9 10 9 23t-9 23z" />
    <glyph glyph-name="uniE621" unicode="&#xe621;" 
d="M512 832q-185 0 -316.5 -131.5t-131.5 -316.5t131.5 -316.5t316.5 -131.5t316.5 131.5t131.5 316.5t-131.5 316.5t-316.5 131.5zM695 246q6 -6 8 -14.5t0 -16.5t-8 -14q-3 -3 -7 -5.5t-8 -3.5t-8 -1t-8 1t-7.5 3.5t-7.5 5.5l-137 138l-138 -137q-3 -2 -5.5 -4t-5.5 -3
t-6 -1.5t-6 -0.5q-4 0 -8 1t-7.5 3t-6.5 6q-4 3 -6.5 7.5t-3 9.5t0 10t3 9.5t6.5 8.5l138 136l-138 138q-9 9 -9 22.5t9 22.5q5 5 11 7.5t12 2.5t12 -2.5t11 -7.5l137 -138l138 137q6 6 14.5 8t16.5 0t14 -8q10 -10 10 -23t-10 -23l-138 -136z" />
    <glyph glyph-name="uniE622" unicode="&#xe622;" 
d="M512 -64q-185 0 -316.5 131.5t-131.5 316.5t131.5 316.5t316.5 131.5t316.5 -131.5t131.5 -316.5t-131.5 -316.5t-316.5 -131.5zM512 768q-104 0 -192.5 -51.5t-140 -140t-51.5 -192.5t51.5 -192.5t140 -140t192.5 -51.5q78 0 149 30.5t122.5 82t82 122.5t30.5 149
t-30.5 149t-82 122.5t-122.5 82t-149 30.5zM557 383l138 136q10 10 10 23t-9.5 22.5t-22.5 9.5t-23 -9l-138 -137l-137 137q-4 4 -10 6.5t-12 2.5t-12 -2t-11 -7q-9 -9 -9 -22.5t9 -22.5l136 -137l-137 -136q-9 -9 -9.5 -22.5t9.5 -22.5q1 -2 3 -3l2 -2q2 -1 3.5 -1.5
t3.5 -1.5t3.5 -1t3.5 -0.5t3 -0.5q14 0 23 10l138 136l138 -140q3 -2 5.5 -3.5t5.5 -3t6 -2t6 -0.5q6 0 12 2.5t10 6.5q7 7 9 15t0 16.5t-8 14.5z" />
    <glyph glyph-name="uniE623" unicode="&#xe623;" 
d="M888 598q-10 9 -23 8.5t-22 -10.5l-427 -454l-233 230q-5 4 -11 6.5t-12 2.5t-12 -2.5t-10 -7.5q-10 -9 -10 -22.5t10 -22.5l256 -253h1q1 -1 7 -4q0 -1 1 -1.5t2 -1.5q3 -1 6 -1.5t6 -0.5l12 3q1 0 2 1t2 1l1 1l6 4v0l449 479q9 9 9 22.5t-10 22.5z" />
    <glyph glyph-name="uniE624" unicode="&#xe624;" 
d="M512 830q-52 0 -102 -11.5t-94 -34t-82.5 -53t-69 -69t-53 -82.5t-34 -94t-11.5 -102q0 -91 35.5 -173.5t95 -142t142 -95t173.5 -35.5t173.5 35.5t142 95t95 142t35.5 173.5t-35.5 173.5t-95 142t-142 95t-173.5 35.5zM727 458l-256 -259v-1q-2 -2 -6 -4h-1
q-1 -1 -2 -1.5t-2 -1.5q-6 -2 -12 -2t-12 2q-1 1 -2 1.5t-1 1.5q-6 3 -7 4v1h-1l-126 129q-9 10 -9 23t9.5 22.5t23 9t22.5 -9.5l103 -106l234 236q9 9 22.5 9t22.5 -9t9.5 -22.5t-9.5 -22.5z" />
    <glyph glyph-name="uniE625" unicode="&#xe625;" 
d="M512 -64q-185 0 -316.5 131.5t-131.5 316.5t131.5 316.5t316.5 131.5t316.5 -131.5t131.5 -316.5t-131.5 -316.5t-316.5 -131.5zM512 768q-104 0 -192.5 -51.5t-140 -140t-51.5 -192.5t51.5 -192.5t140 -140t192.5 -51.5q78 0 149 30.5t122.5 82t82 122.5t30.5 149
t-30.5 149t-82 122.5t-122.5 82t-149 30.5zM727 503q-9 9 -22.5 9t-22.5 -9l-234 -236l-103 106q-9 9 -22.5 9.5t-23 -9t-9.5 -22.5t9 -23l126 -129h1v-1q1 -1 7 -4q0 -1 1 -1l2 -2q3 -1 6 -1.5t6 -0.5q6 0 12 2l2 2q1 0 2 1h1l6 4v1l256 259q5 4 7.5 10t2 12t-2.5 12t-7 11
z" />
    <glyph glyph-name="uniE626" unicode="&#xe626;" 
d="M512 -62q-60 0 -116.5 15t-107.5 44.5t-93 71.5q-63 63 -97 144.5t-34 170.5t34 170.5t97 144.5q32 32 68.5 56.5t77 41t83.5 25t88 8.5q90 0 171.5 -33.5t145.5 -97.5q16 -15 30 -32.5t26 -35.5t22.5 -37t18.5 -39t14.5 -41t11 -42.5t6.5 -43.5t2 -44q0 -89 -34 -170.5
t-97.5 -145t-145 -97t-171.5 -33.5zM512 766q-77 0 -147 -29t-125 -83q-36 -36 -61 -79t-38 -91.5t-13 -99.5t13 -99.5t38 -91.5t61 -79q55 -54 125 -83t147 -29t147 29t124.5 83t83.5 124t29 146.5t-29 146t-83.5 123.5t-124.5 83t-147 29zM736 416h-192v192
q0 13 -9.5 22.5t-22.5 9.5t-22.5 -9.5t-9.5 -22.5v-192h-192q-13 0 -22.5 -9.5t-9.5 -22.5t9.5 -22.5t22.5 -9.5h192v-192q0 -9 4.5 -16t11.5 -11.5t16 -4.5q13 0 22.5 9.5t9.5 22.5v192h192q13 0 22.5 9.5t9.5 22.5q0 9 -4.5 16t-11.5 11.5t-16 4.5z" />
    <glyph glyph-name="uniE627" unicode="&#xe627;" 
d="M863 415h-317v318q0 13 -9.5 22.5t-22.5 9.5t-22.5 -9.5t-9.5 -22.5v-318h-322q-14 0 -23 -9.5t-9.5 -22.5t9 -22.5t22.5 -9.5h323v-319q0 -14 9.5 -23t22.5 -9q5 0 10 1.5t9 4.5t7 7t4.5 8.5t1.5 10.5v319h317q13 0 22.5 9t9.5 22.5t-9 23t-23 9.5z" />
    <glyph glyph-name="uniE628" unicode="&#xe628;" 
d="M828.5 699.5q-63.5 63.5 -145 97t-171.5 33.5t-171.5 -33.5t-145 -97t-97.5 -145t-34 -170.5t34 -170.5t97.5 -145t145 -97t171.5 -33.5t171.5 33.5t145 97t97.5 145t34 170.5t-34 170.5t-97.5 145zM736 352h-192v-192q0 -9 -4.5 -16t-11.5 -11.5t-16 -4.5
q-13 0 -22.5 9.5t-9.5 22.5v192h-192q-13 0 -22.5 9.5t-9.5 22.5t9.5 22.5t22.5 9.5h192v192q0 13 9.5 22.5t22.5 9.5t22.5 -9.5t9.5 -22.5v-192h192q13 0 22.5 -9.5t9.5 -22.5t-9.5 -22.5t-22.5 -9.5z" />
    <glyph glyph-name="uniE629" unicode="&#xe629;" 
d="M832 -32h-640q-26 0 -48 13t-35 35t-13 48v640q0 40 28 68t68 28h640q16 0 30.5 -5t26.5 -13.5t20.5 -20.5t13.5 -26.5t5 -30.5v-640q0 -40 -28 -68t-68 -28zM192 736q-9 0 -16 -4.5t-11.5 -11.5t-4.5 -16v-640q0 -13 9.5 -22.5t22.5 -9.5h640q13 0 22.5 9.5t9.5 22.5
v640q0 13 -9.5 22.5t-22.5 9.5h-640z" />
    <glyph glyph-name="uniE62A" unicode="&#xe62a;" 
d="M832 800h-640q-40 0 -68 -28t-28 -68v-640q0 -40 28 -68t68 -28h640q40 0 68 28t28 68v640q0 26 -13 48t-35 35t-48 13zM727 458l-256 -259v-1q-2 -2 -6 -4h-1q-1 -1 -2 -1.5t-2 -1.5q-6 -2 -12 -2t-12 2q-1 1 -2 1.5t-1 1.5q-6 3 -7 4v1h-1l-126 129q-9 10 -9 23
t9.5 22.5t23 9t22.5 -9.5l103 -106l234 236q9 9 22.5 9t22.5 -9.5t9.5 -22.5t-9.5 -22z" />
    <glyph glyph-name="uniE62B" unicode="&#xe62b;" 
d="M727 503q-9 9 -22.5 9t-22.5 -9l-234 -236l-103 106q-9 9 -22.5 9.5t-23 -9t-9.5 -22.5t9 -23l126 -129h1v-1q1 -1 7 -4q0 -1 1 -1.5t2 -1.5q3 -1 6 -1.5t6 -0.5q6 0 12 2q1 1 2 1.5t2 1.5h1l6 4v1l256 259q10 9 9.5 22t-9.5 23zM832 -32h-640q-26 0 -48 13t-35 35
t-13 48v640q0 40 28 68t68 28h640q16 0 30.5 -5t26.5 -13.5t20.5 -20.5t13.5 -26.5t5 -30.5v-640q0 -40 -28 -68t-68 -28zM192 736q-9 0 -16 -4.5t-11.5 -11.5t-4.5 -16v-640q0 -13 9.5 -22.5t22.5 -9.5h640q13 0 22.5 9.5t9.5 22.5v640q0 13 -9.5 22.5t-22.5 9.5h-640z" />
    <glyph glyph-name="uniE62C" unicode="&#xe62c;" 
d="M736 768q-49 0 -94.5 -18t-81.5 -53q-2 -2 -10.5 -10t-17.5 -17l-20 -20l-47 47q-74 71 -177 71q-106 0 -181 -75t-75 -181q0 -39 12.5 -75.5t28 -61t36.5 -45.5l317 -321q41 -41 86 -41t87 41l319 323q25 31 37.5 49.5t24.5 54t12 76.5q0 52 -20.5 99.5t-54.5 81.5
t-81.5 54.5t-99.5 20.5z" />
    <glyph glyph-name="uniE62D" unicode="&#xe62d;" 
d="M512 -32q-45 0 -87 41l-319 323q-25 31 -37.5 49.5t-24.5 54t-12 76.5q0 52 20.5 99.5t54.5 81.5t81.5 54.5t99.5 20.5q81 0 147 -47q11 -7 13.5 -20t-5.5 -24t-21 -13.5t-24 5.5q-49 35 -110 35q-52 0 -96.5 -25.5t-70 -70t-25.5 -96.5q0 -42 13 -69.5t46 -69.5
l316 -318q22 -23 41 -23t42 23l316 320q58 63 58 137q0 80 -56 136t-136 56q-18 0 -35.5 -3t-34 -9.5t-31.5 -16t-28 -21.5l-134 -134q-10 -10 -23 -10t-23 10q-4 4 -6.5 10t-2.5 12t2.5 12t6.5 11l135 135q75 68 174 68q106 0 181 -75t75 -181q0 -24 -4.5 -47t-12 -41.5
t-17.5 -36.5t-20 -31t-22 -25l-317 -321q-42 -42 -87 -42z" />
    <glyph glyph-name="uniE62E" unicode="&#xe62e;" 
d="M512 -64q-185 0 -316.5 131.5t-131.5 316.5t131.5 316.5t316.5 131.5t316.5 -131.5t131.5 -316.5t-131.5 -316.5t-316.5 -131.5zM512 768q-159 0 -271.5 -112.5t-112.5 -271.5t112.5 -271.5t271.5 -112.5t271.5 112.5t112.5 271.5t-112.5 271.5t-271.5 112.5z" />
    <glyph glyph-name="uniE630" unicode="&#xe630;" 
d="M957 492q-3 8 -9.5 14t-15.5 7l-271 42l-120 259q-9 18 -29 18q-21 0 -29 -18l-122 -258l-271 -41q-19 -3 -25 -22q-3 -8 -1 -17t8 -15l196 -202l-47 -285q-1 -9 2.5 -17.5t10.5 -13.5q17 -12 34 -2l242 133l242 -134q7 -4 15 -4h1q13 0 22.5 9.5t9.5 22.5q0 6 -2 11
l-45 279l197 201q13 14 7 33z" />
    <glyph glyph-name="uniE631" unicode="&#xe631;" 
d="M832 269v-289h-640v640h288q13 0 22.5 9.5t9.5 22.5t-9.5 22.5t-22.5 9.5h-288q-27 0 -45.5 -18.5t-18.5 -45.5v-640q0 -26 19 -45t45 -19h640q26 0 45 19t19 45v289q0 14 -9.5 23t-22.5 9t-22.5 -9t-9.5 -23zM896 460v192q0 13 -9.5 22.5t-22.5 9.5h-191
q-13 0 -22.5 -9.5t-9.5 -22.5t9.5 -22.5t22.5 -9.5h114l-276 -275l-4 -6q-2 -3 -3 -6.5t-1.5 -7t0 -7t1.5 -7t3 -6.5l4 -6q2 -2 4.5 -3.5t4.5 -2.5l6 -2q2 -1 5 -1h5q3 0 6 1t5.5 2t5 2.5t4.5 3.5l275 276v-115q0 -13 9.5 -22.5t22.5 -9.5t22.5 9.5t9.5 22.5z" />
    <glyph glyph-name="uniE632" unicode="&#xe632;" 
d="M767 -64q-8 0 -15 4l-242 134l-242 -133q-17 -10 -33.5 1.5t-13.5 31.5l47 285l-196 202q-14 14 -7 32q5 18 24 22l155 26q14 3 24.5 -5t12.5 -21q1 -6 -0.5 -12.5t-5 -11t-8.5 -8.5t-12 -5l-95 -16l165 -170q12 -12 9 -28l-39 -235l200 109q15 9 31 0l199 -110l-38 236
q-3 16 9 27l164 169l-225 34q-17 3 -24 18l-100 213l-100 -212q-5 -12 -17.5 -16.5t-24.5 1t-16.5 18t0.5 24.5l130 274q8 18 28 18q21 0 29 -18l121 -259l270 -41q9 -2 16 -7.5t10 -14.5q2 -6 1.5 -11.5t-2.5 -11t-7 -9.5l-197 -202l46 -285q2 -9 -1.5 -17.5t-11.5 -13.5
q-4 -3 -8.5 -4.5t-9.5 -1.5z" />
    <glyph glyph-name="uniE633" unicode="&#xe633;" 
d="M861 157q21 0 35 15.5t14 34.5t-14 36l-349 349q-6 6 -13 9.5t-14.5 4.5t-15 0t-14.5 -4.5t-13 -9.5l-349 -349q-25 -25 -8 -58q16 -27 43 -28h698zM960 37z" />
    <glyph glyph-name="uniE634" unicode="&#xe634;" 
d="M783 764q-8 6 -19 4.5t-18 -9.5q-6 -9 -4.5 -19t8.5 -17q70 -56 109 -136.5t39 -170.5q0 -64 -20 -124.5t-56 -108.5t-84.5 -84.5t-109 -56.5t-124.5 -20q-80 0 -153 31t-126 84t-84 126t-31 153q0 90 39 170.5t109 136.5q8 7 9 18t-6 19q-4 4 -8.5 6.5t-9 3t-9.5 -1
t-9 -4.5q-79 -63 -123.5 -154.5t-44.5 -193.5q0 -91 35.5 -173.5t95.5 -142.5t142.5 -95t173.5 -35q73 0 141 22.5t123 63.5t96.5 96t64 123t22.5 141q0 68 -20 132t-57.5 119t-90.5 97zM485 296l1 -1l1 -1l2 -1l1 -1h1v-1h1l1 -1h1h1v-1h1h1h1l1 -1h1h2h5h1h1l1 1h1h1h1v1
h1h1l1 1l1 1h1l1 1h1l1 1l1 1l1 1l157 157q8 8 8 19t-7.5 18.5t-18.5 7.5t-19 -8l-113 -112v409q0 11 -7.5 18.5t-18.5 7.5t-18.5 -7.5t-7.5 -18.5v-409l-113 112q-8 8 -19 8t-18.5 -7.5t-7.5 -18.5t8 -19z" />
    <glyph glyph-name="uniE635" unicode="&#xe635;" 
d="M887 279l-353 350l-1 1h-1v1l-6 4q-3 2 -6.5 3t-7 1.5t-7 0t-6.5 -1.5t-6.5 -3t-5.5 -5l-350 -353q-10 -9 -10 -22.5t9.5 -22.5t22.5 -9q4 0 8 1t8 3t7 5l328 331l332 -330q10 -9 23 -9t22.5 9.5t9.5 23t-10 22.5z" />
    <glyph glyph-name="uniE636" unicode="&#xe636;" 
d="M512 -64q-185 0 -316.5 131.5t-131.5 316.5t131.5 316.5t316.5 131.5t316.5 -131.5t131.5 -316.5t-131.5 -316.5t-316.5 -131.5zM512 768q-159 0 -271.5 -112.5t-112.5 -271.5t112.5 -271.5t271.5 -112.5t271.5 112.5t112.5 271.5t-112.5 271.5t-271.5 112.5zM694 438
l-158 160q-15 15 -35 7l-1 -1h-1q-6 -3 -8 -6v0l-160 -159q-6 -6 -8 -14.5t0 -16.5t8 -14q3 -3 7 -5.5t8 -3.5t8 -1q13 0 22 10l104 103v-305q0 -13 9.5 -22.5t22.5 -9.5q9 0 16 4.5t11.5 11.5t4.5 16v307l105 -106q9 -10 23 -10q13 1 22 9q5 5 7.5 11t2.5 12t-2.5 12
t-7.5 11z" />
    <glyph glyph-name="uniE637" unicode="&#xe637;" 
d="M163 607q-31 0 -44.5 -31t9.5 -54l349 -350q15 -15 35 -15t35 15l349 350q9 8 12.5 20t1 23t-9 20.5t-17 15.5t-22.5 6h-698zM960 37z" />
    <glyph glyph-name="uniE638" unicode="&#xe638;" 
d="M890 565q-6 6 -14 8t-16.5 0t-14.5 -8l-328 -331l-332 329q-10 10 -23 10t-22 -10q-3 -2 -4.5 -4.5t-3 -5.5t-2 -6t-0.5 -6t0.5 -6.5t2 -6t3 -5.5t4.5 -5l353 -350h1l1 -1v-1q10 -9 23 -9t22 9l350 354q5 4 7.5 10t2.5 12.5t-2.5 12.5t-7.5 10z" />
    <glyph glyph-name="uniE639" unicode="&#xe639;" 
d="M512 -64q-185 0 -316.5 131.5t-131.5 316.5t131.5 316.5t316.5 131.5t316.5 -131.5t131.5 -316.5t-131.5 -316.5t-316.5 -131.5zM512 768q-159 0 -271.5 -112.5t-112.5 -271.5t112.5 -271.5t271.5 -112.5t271.5 112.5t112.5 271.5t-112.5 271.5t-271.5 112.5zM695 374
q-5 4 -11 6.5t-12.5 2.5t-12.5 -2t-10 -7l-105 -104v307q0 8 -4.5 15.5t-11.5 12t-16 4.5q-13 0 -22.5 -9.5t-9.5 -22.5v-309l-105 107q-6 6 -14.5 8.5t-16.5 0t-15 -8.5q-9 -9 -9 -22.5t9 -22.5l160 -161q9 -10 23 -10q13 0 22 9v1l160 159q10 10 10 23t-9 23z" />
    <glyph glyph-name="uniE63A" unicode="&#xe63a;" 
d="M761 364l1 1l1 2q3 7 4 14.5t0 14.5t-4.5 14t-9.5 12l-353 334q-10 9 -22 12t-24.5 -0.5t-21.5 -13.5q-14 -14 -13 -34t15 -34l317 -299l-316 -305q-14 -13 -14.5 -33t13.5 -35q14 -14 35 -14q19 0 33 13l350 338v1l1 1l1 1h1q1 2 6 10z" />
    <glyph glyph-name="uniE63B" unicode="&#xe63b;" 
d="M512 -64q-185 0 -316.5 131.5t-131.5 316.5t131.5 316.5t316.5 131.5t316.5 -131.5t131.5 -316.5t-131.5 -316.5t-316.5 -131.5zM512 768q-159 0 -271.5 -112.5t-112.5 -271.5t112.5 -271.5t271.5 -112.5t271.5 112.5t112.5 271.5t-112.5 271.5t-271.5 112.5zM733 395
q-3 6 -7 10v0l-159 160q-5 4 -11 6.5t-12 2.5t-12 -2.5t-10 -6.5q-10 -9 -10 -22.5t10 -22.5l103 -104h-305q-13 0 -22.5 -9.5t-9.5 -22.5t9.5 -22.5t22.5 -9.5h307l-106 -105q-10 -9 -10 -22.5t9 -22.5q5 -5 11 -7.5t12 -2.5q13 1 23 10l160 158q15 15 7 35z" />
    <glyph glyph-name="uniE63C" unicode="&#xe63c;" 
d="M672 -16q-20 0 -34 14l-352 352q-5 5 -8 10.5t-4.5 11.5t-1.5 12t1.5 12t4.5 11.5t8 10.5l352 352q14 14 34 14t34 -14q9 -9 12.5 -21.5t0 -25t-12.5 -21.5l-318 -318l318 -318q9 -9 12.5 -21.5t0 -25t-12.5 -21.5q-14 -14 -34 -14z" />
    <glyph glyph-name="uniE63D" unicode="&#xe63d;" 
d="M512 -64q-185 0 -316.5 131.5t-131.5 316.5t131.5 316.5t316.5 131.5t316.5 -131.5t131.5 -316.5t-131.5 -316.5t-316.5 -131.5zM512 768q-159 0 -271.5 -112.5t-112.5 -271.5t112.5 -271.5t271.5 -112.5t271.5 112.5t112.5 271.5t-112.5 271.5t-271.5 112.5zM290 372
l1 -1q2 -6 6 -10v0l159 -159q10 -10 23 -10t22.5 9.5t9.5 22.5t-9 23l-104 103h305q7 0 13 3t10 7t6.5 10t2.5 12.5t-2.5 12.5t-6.5 10t-10 6.5t-13 2.5h-306l106 105q9 10 9 23t-9 22.5t-23 9.5q-3 0 -6 -0.5t-6 -1.5t-5.5 -3t-4.5 -4l-161 -159q-15 -15 -7 -34z" />
    <glyph glyph-name="uniE63E" unicode="&#xe63e;" 
d="M943 127l-341 609q-35 63 -90.5 63t-90.5 -63l-340 -609q-34 -62 -6 -111q29 -48 100 -48h674q71 0 100 48q27 49 -6 111zM480 576q0 13 9.5 22.5t22.5 9.5t22.5 -9.5t9.5 -22.5v-288q0 -13 -9.5 -22.5t-22.5 -9.5t-22.5 9.5t-9.5 22.5v288zM512 64q-13 0 -24 6.5
t-17.5 17.5t-6.5 24q0 20 14 34t34 14t34 -14t14 -34t-14 -34t-34 -14z" />
    <glyph glyph-name="uniE63F" unicode="&#xe63f;" 
d="M849 -33h-674q-71 0 -99.5 49t5.5 111l340 609q35 63 91 63q13 0 25.5 -4t24 -12t22 -20t18.5 -27l341 -609q34 -63 5.5 -111.5t-99.5 -48.5zM512 735q-9 0 -18 -8t-17 -22l-340 -610q-17 -30 -7 -47t45 -17h674q35 0 45 17t-7 47l-341 610q-16 30 -34 30zM512 256
q-13 0 -22.5 9.5t-9.5 22.5v288q0 13 9.5 22.5t22.5 9.5t22.5 -9.5t9.5 -22.5v-288q0 -13 -9.5 -22.5t-22.5 -9.5zM512 144zM464 144q0 20 14 34t34 14q13 0 24 -6.5t17.5 -17.5t6.5 -24q0 -20 -14 -34t-34 -14t-34 14t-14 34z" />
    <glyph glyph-name="uniE640" unicode="&#xe640;" 
d="M512 830q-91 0 -173.5 -35.5t-142 -95t-95 -142t-35.5 -173.5t35.5 -173.5t95 -142t142 -95t173.5 -35.5t173.5 35.5t142 95t95 142t35.5 173.5t-35.5 173.5t-95 142t-142 95t-173.5 35.5zM544 160q0 -13 -9.5 -22.5t-22.5 -9.5t-22.5 9.5t-9.5 22.5v288q0 13 9.5 22.5
t22.5 9.5q9 0 16 -4.5t11.5 -11.5t4.5 -16v-288zM512 544q-20 0 -34 14t-14 34t14 34t34 14t34 -14t14 -34t-14 -34t-34 -14z" />
    <glyph glyph-name="uniE641" unicode="&#xe641;" 
d="M512 -62q-91 0 -173.5 35.5t-142 95t-95 142t-35.5 173.5t35.5 173.5t95 142t142 95t173.5 35.5q73 0 141 -22.5t122.5 -64t96 -96t64 -122.5t22.5 -141t-22.5 -141t-64 -122.5t-96 -96t-122.5 -64t-141 -22.5zM512 766q-52 0 -101.5 -13.5t-91.5 -38.5t-77 -60t-60 -77
t-38.5 -91.5t-13.5 -101.5q0 -104 51 -192t139 -139t192 -51q78 0 148.5 30.5t121.5 81.5t81.5 121.5t30.5 148.5q0 104 -51 192t-139 139t-192 51zM464 592q0 -20 14 -34t34 -14t34 14t14 34t-14 34t-34 14t-34 -14t-14 -34zM512 128q-13 0 -22.5 9.5t-9.5 22.5v288
q0 13 9.5 22.5t22.5 9.5t22.5 -9.5t9.5 -22.5v-288q0 -9 -4.5 -16t-11.5 -11.5t-16 -4.5z" />
    <glyph glyph-name="uniE642" unicode="&#xe642;" 
d="M512 832q-185 0 -316.5 -131.5t-131.5 -316.5t131.5 -316.5t316.5 -131.5t316.5 131.5t131.5 316.5t-131.5 316.5t-316.5 131.5zM512 64q-20 0 -34 14t-14 34t14 34t34 14q13 0 24 -6.5t17.5 -17.5t6.5 -24q0 -20 -14 -34t-34 -14zM601 391q-19 -19 -28.5 -29t-19 -26
t-9.5 -28v-54q0 -13 -9.5 -22.5t-22.5 -9.5t-22.5 9.5t-9.5 22.5v54q0 13 3 25t9 24t12 21t16.5 21t16.5 18.5t18 18.5q18 17 26.5 26.5t17.5 23.5t9 24q0 40 -28 68.5t-68 28.5t-68 -27.5t-28 -67.5q0 -13 -9.5 -22.5t-22.5 -9.5t-22.5 9.5t-9.5 22.5q0 66 47 112.5
t113 46.5q43 0 80 -21.5t58.5 -58.5t21.5 -81q0 -14 -4.5 -28t-10 -24t-17 -24t-18.5 -21.5t-21 -21.5z" />
    <glyph glyph-name="uniE643" unicode="&#xe643;" 
d="M464 112q0 -20 14 -34t34 -14t34 14t14 34q0 4 -1 8.5t-2 8t-3 7.5l-6 6q-2 4 -5 6.5t-6.5 4.5t-7.5 3.5t-8.5 2.5t-8.5 1q-20 0 -34 -14t-14 -34zM512 -64q-185 0 -316.5 131.5t-131.5 316.5t131.5 316.5t316.5 131.5t316.5 -131.5t131.5 -316.5t-131.5 -316.5
t-316.5 -131.5zM512 768q-104 0 -192.5 -51.5t-140 -140t-51.5 -192.5t51.5 -192.5t140 -140t192.5 -51.5q78 0 149 30.5t122.5 82t82 122.5t30.5 149t-30.5 149t-82 122.5t-122.5 82t-149 30.5zM512 222q-7 0 -12.5 2.5t-10 7t-7 10.5t-2.5 12v54q0 15 5 30.5t11 27t18 26
t19.5 22.5t21.5 22l20 20q7 7 16 18t13 19.5t4 16.5q0 26 -13 48.5t-35 35.5t-48 13q-40 0 -68 -27.5t-28 -67.5q0 -13 -9.5 -22.5t-22.5 -9.5t-22.5 9.5t-9.5 22.5q0 66 47 112.5t113 46.5t113 -47t47 -114q0 -22 -12 -45.5t-24 -37t-35 -36.5q-10 -9 -14.5 -14
t-12.5 -13.5t-12.5 -14.5t-9 -13.5t-6.5 -14t-2 -13.5v-54q0 -13 -9.5 -22.5t-22.5 -9.5z" />
    <glyph glyph-name="uniE644" unicode="&#xe644;" 
d="M816 -63h-621q-51 0 -91 39q-40 40 -40 90v645q0 51 43 85q18 14 41 22t47 8h337q8 0 15 -4t11 -11.5t4 -15.5q0 -4 -1 -8t-3 -7.5t-4.5 -6t-6 -4.5t-7.5 -3.5t-8 -1.5h-337q-17 0 -32.5 -6.5t-26.5 -19t-11 -27.5v-645q0 -25 22.5 -46.5t47.5 -21.5h621q23 0 37 20.5
t14 47.5v333q0 12 9 21t22 9t22 -9t9 -21v-333q0 -50 -29 -87q-33 -42 -84 -42zM489 346q-16 0 -27.5 11t-11.5 27.5t11 27.5l409 409q8 7 18 10t20 0t17.5 -10t10 -17t0 -20t-10.5 -18l-409 -409q-11 -11 -27 -11z" />
  </font>
</defs>
</svg>
